<?xml version="1.0" encoding="UTF-8"?>
<svg version="1.1" xmlns="http://www.w3.org/2000/svg" width="500" height="125">
<path d="M0 0 C2.31 0.66 4.62 1.32 7 2 C7 3.32 7 4.64 7 6 C7.928125 6.37125 7.928125 6.37125 8.875 6.75 C11.38895216 8.22879539 11.8534051 9.37921165 13 12 C13.66 12.66 14.32 13.32 15 14 C18.92676003 22.32473127 19.10002759 28.89748949 19 38 C15.04 37.67 11.08 37.34 7 37 C7.04125 35.824375 7.0825 34.64875 7.125 33.4375 C7.13983635 29.27590326 6.31170778 25.93512333 5 22 C4.01 22.33 3.02 22.66 2 23 C2 22.34 2 21.68 2 21 C1.34 21 0.68 21 0 21 C0.66 21.94875 1.32 22.8975 2 23.875 C4.63665153 28.44022703 4.54861252 32.85563346 4 38 C3.67 38.99 3.34 39.98 3 41 C2.34 41 1.68 41 1 41 C-0.11785113 43.11785113 -0.11785113 43.11785113 -1 46 C-0.21625 45.360625 0.5675 44.72125 1.375 44.0625 C5.55350178 41.21991345 10.07641598 41.19460806 15 41 C14.67 43.64 14.34 46.28 14 49 C12.02 49.495 12.02 49.495 10 50 C10 50.66 10 51.32 10 52 C8.03852126 53.38938077 6.03833424 54.7260411 4 56 C4.33 56.66 4.66 57.32 5 58 C3.9275 58.144375 2.855 58.28875 1.75 58.4375 C-1.70897266 58.87405261 -1.70897266 58.87405261 -3.84765625 59.52734375 C-6.65806161 60.14451081 -9.31264324 60.13200331 -12.1875 60.125 C-13.78658203 60.12886719 -13.78658203 60.12886719 -15.41796875 60.1328125 C-18 60 -18 60 -19 59 C-19.07205511 57.31391034 -19.08386068 55.62499341 -19.0625 53.9375 C-19.05347656 53.01839844 -19.04445313 52.09929687 -19.03515625 51.15234375 C-19.02355469 50.44207031 -19.01195313 49.73179688 -19 49 C-18.11248047 49.01740234 -18.11248047 49.01740234 -17.20703125 49.03515625 C-12.99768215 49.08322386 -9.1077667 49.06006883 -5 48 C-5 47.01 -5 46.02 -5 45 C-6.93742341 44.97296619 -8.87495479 44.95358875 -10.8125 44.9375 C-11.89144531 44.92589844 -12.97039062 44.91429687 -14.08203125 44.90234375 C-17.06512169 44.86375234 -17.06512169 44.86375234 -20 46 C-23.73578362 42.86676213 -24.39221332 40.76099563 -25 36 C-25.66 35.01 -26.32 34.02 -27 33 C-27.125 30.3125 -27.125 30.3125 -27 28 C-26.34 28 -25.68 28 -25 28 C-25.33 25.69 -25.66 23.38 -26 21 C-29.04023758 25.17536545 -29.28458331 28.02250045 -29.0625 33.125 C-28.79193629 39.68790443 -28.79193629 39.68790443 -31 43 C-31 43.99 -31 44.98 -31 46 C-33.25 47.125 -33.25 47.125 -36 48 C-38.3125 47.125 -38.3125 47.125 -40 46 C-40 44.68 -40 43.36 -40 42 C-40.495 40.515 -40.495 40.515 -41 39 C-42.25410983 30.75074423 -42.66777208 22.00331624 -40 14 C-39.34 14 -38.68 14 -38 14 C-37.67 13.34 -37.34 12.68 -37 12 C-36.33333333 10.66666667 -35.66666667 9.33333333 -35 8 C-34.01 8 -33.02 8 -32 8 C-31.38125 7.175 -30.7625 6.35 -30.125 5.5 C-28 3 -28 3 -25.25 2.6875 C-24.13625 2.8421875 -24.13625 2.8421875 -23 3 C-22.67 2.34 -22.34 1.68 -22 1 C-21.36908447 1.00523682 -20.73816895 1.01047363 -20.08813477 1.01586914 C-17.24626653 1.03657826 -14.40441412 1.04964066 -11.5625 1.0625 C-10.56927734 1.07087891 -9.57605469 1.07925781 -8.55273438 1.08789062 C-7.60849609 1.09111328 -6.66425781 1.09433594 -5.69140625 1.09765625 C-4.81685791 1.10289307 -3.94230957 1.10812988 -3.04125977 1.11352539 C-1.00559794 1.22784809 -1.00559794 1.22784809 0 0 Z M-17 12 C-17 12.33 -17 12.66 -17 13 C-12.38 13.66 -7.76 14.32 -3 15 C-3 14.34 -3 13.68 -3 13 C-6.14930893 11.95023036 -8.38814456 11.89868405 -11.6875 11.9375 C-12.68136719 11.94652344 -13.67523438 11.95554687 -14.69921875 11.96484375 C-15.45847656 11.97644531 -16.21773437 11.98804688 -17 12 Z M-20 13 C-19.67 13.66 -19.34 14.32 -19 15 C-18.67 14.34 -18.34 13.68 -18 13 C-18.66 13 -19.32 13 -20 13 Z M-14 15 C-14 15.33 -14 15.66 -14 16 C-12.35 16 -10.7 16 -9 16 C-9 15.67 -9 15.34 -9 15 C-10.65 15 -12.3 15 -14 15 Z M-20 16 C-21.32 17.32 -22.64 18.64 -24 20 C-20.06924356 19.42547254 -20.06924356 19.42547254 -17 17 C-17.99 16.67 -18.98 16.34 -20 16 Z M-4 18 C-3.67 18.66 -3.34 19.32 -3 20 C-2.34 19.67 -1.68 19.34 -1 19 C-1.99 18.67 -2.98 18.34 -4 18 Z " fill="#FCFDFD" transform="translate(99,19)"/>
<path d="M0 0 C0.50789063 0.16757812 1.01578125 0.33515625 1.5390625 0.5078125 C6.05311374 1.41062275 10.69193191 0.89827086 15.2734375 0.7421875 C19.28490501 1.01971041 21.5026231 2.11831271 25 4 C26.32 4 27.64 4 29 4 C29.495 4.99 29.495 4.99 30 6 C30.99 6.33 31.98 6.66 33 7 C37.57772338 13.05875153 37.57772338 13.05875153 38 17 C37.67 17.66 37.34 18.32 37 19 C37.66 19 38.32 19 39 19 C39.78441153 25.56492112 40.10914408 31.46837378 39 38 C38.34 38 37.68 38 37 38 C37.04125 39.2375 37.0825 40.475 37.125 41.75 C37.2361216 45.08364791 36.65876079 47.1004339 35 50 C35.54269531 50.38671875 36.08539063 50.7734375 36.64453125 51.171875 C37.35996094 51.69265625 38.07539063 52.2134375 38.8125 52.75 C39.87404297 53.51570313 39.87404297 53.51570313 40.95703125 54.296875 C43.05020821 56.04185617 44.52623633 57.7126444 46 60 C46 60.66 46 61.32 46 62 C42.56265937 62.08703823 39.12560163 62.14040272 35.6875 62.1875 C34.71103516 62.21263672 33.73457031 62.23777344 32.72851562 62.26367188 C31.32182617 62.27817383 31.32182617 62.27817383 29.88671875 62.29296875 C29.02264404 62.3086792 28.15856934 62.32438965 27.26831055 62.34057617 C24.52318226 61.92840806 23.63848247 61.20373046 22 59 C22 58.34 22 57.68 22 57 C21.10539062 57.02320313 20.21078125 57.04640625 19.2890625 57.0703125 C4.83012877 57.28611748 4.83012877 57.28611748 -2 55 C-2.66 54.34 -3.32 53.68 -4 53 C-4.66 52.67 -5.32 52.34 -6 52 C-6.78375 51.195625 -7.5675 50.39125 -8.375 49.5625 C-10.73080398 46.97417013 -10.73080398 46.97417013 -13.1875 46 C-15.88190464 44.51343192 -16.09433604 42.91608181 -17 40 C-17.21608413 37.38734643 -17.33254811 34.92122159 -17.3125 32.3125 C-17.31048584 31.60786621 -17.30847168 30.90323242 -17.30639648 30.17724609 C-17.18228387 23.68028535 -15.91898824 17.83797649 -13 12 C-12.34 12.33 -11.68 12.66 -11 13 C-10.71125 12.401875 -10.4225 11.80375 -10.125 11.1875 C-7.78436292 6.63626124 -5.21086877 4.77738153 -1 2 C-0.67 1.34 -0.34 0.68 0 0 Z M33 10 C34 12 34 12 34 12 Z M0 18.3125 C-2.97507983 22.3767616 -2.56076174 27.1335694 -2.56640625 31.9765625 C-1.89796105 35.5446769 -0.77039006 36.74182918 2 39 C2.99 38.67 3.98 38.34 5 38 C5 38.66 5 39.32 5 40 C4.34 40.33 3.68 40.66 3 41 C3.99 41.33 4.98 41.66 6 42 C9.465 38.535 9.465 38.535 13 35 C12.67 34.01 12.34 33.02 12 32 C13.98 31.67 15.96 31.34 18 31 C18.33 31.66 18.66 32.32 19 33 C19 32.34 19 31.68 19 31 C19.99 31 20.98 31 22 31 C22.33 32.32 22.66 33.64 23 35 C23.66 34.67 24.32 34.34 25 34 C25 32.35 25 30.7 25 29 C24.34 29 23.68 29 23 29 C23 25.7 23 22.4 23 19 C22.34 19 21.68 19 21 19 C20.67 18.34 20.34 17.68 20 17 C12.88994863 12.98127531 6.50803899 13.29588661 0 18.3125 Z M24 23 C25 27 25 27 25 27 Z M-15 39 C-15 40.32 -15 41.64 -15 43 C-14.34 43 -13.68 43 -13 43 C-13.66 41.68 -14.32 40.36 -15 39 Z M35 42 C36 44 36 44 36 44 Z M34 44 C35 46 35 46 35 46 Z " fill="#FDFDFD" transform="translate(252,19)"/>
<path d="M0 0 C0.74613556 -0.00570007 1.49227112 -0.01140015 2.26101685 -0.01727295 C3.84310482 -0.02673651 5.42521262 -0.0332623 7.00732422 -0.03710938 C9.42841032 -0.0468073 11.8486449 -0.07781323 14.26953125 -0.109375 C15.80468244 -0.1159056 17.33983973 -0.12115585 18.875 -0.125 C19.60008759 -0.1373468 20.32517517 -0.1496936 21.07223511 -0.16241455 C26.13589315 -0.139976 26.13589315 -0.139976 28.42626953 1.66894531 C28.80380371 2.17522461 29.18133789 2.68150391 29.5703125 3.203125 C30.2303125 3.491875 30.8903125 3.780625 31.5703125 4.078125 C34.25394722 5.58766953 35.15936973 7.52233374 36.5703125 10.203125 C36.2403125 10.533125 35.9103125 10.863125 35.5703125 11.203125 C35.85636148 12.87855476 36.18812483 14.54697843 36.5703125 16.203125 C34.02048817 17.47803716 32.40565826 17.22909116 29.5625 17.08203125 C28.57636719 17.03369141 27.59023438 16.98535156 26.57421875 16.93554688 C25.54167969 16.87947266 24.50914062 16.82339844 23.4453125 16.765625 C22.40503906 16.71341797 21.36476563 16.66121094 20.29296875 16.60742188 C17.71846134 16.47751554 15.14431954 16.34254248 12.5703125 16.203125 C12.5703125 17.193125 12.5703125 18.183125 12.5703125 19.203125 C20.4903125 19.203125 28.4103125 19.203125 36.5703125 19.203125 C34.5703125 21.203125 34.5703125 21.203125 31.4453125 21.328125 C30.4965625 21.286875 29.5478125 21.245625 28.5703125 21.203125 C28.5275915 22.86924405 28.52967418 24.53695385 28.5703125 26.203125 C28.9003125 26.533125 29.2303125 26.863125 29.5703125 27.203125 C30.5703125 30.203125 30.5703125 30.203125 31.5703125 34.203125 C23.3203125 34.203125 15.0703125 34.203125 6.5703125 34.203125 C6.9003125 35.853125 7.2303125 37.503125 7.5703125 39.203125 C8.38185791 39.18741455 9.19340332 39.1717041 10.02954102 39.15551758 C13.73055974 39.09289593 17.43146667 39.05404728 21.1328125 39.015625 C22.40962891 38.99048828 23.68644531 38.96535156 25.00195312 38.93945312 C31.61112404 38.88795309 36.7685766 38.87912293 42.5703125 42.203125 C42.3828125 43.953125 42.3828125 43.953125 41.5703125 46.203125 C39.90815982 47.54208132 38.24067643 48.87442642 36.5703125 50.203125 C35.8391641 51.38943318 35.12839849 52.5884644 34.43481445 53.79711914 C32.95933514 55.89952428 32.15800934 57.00942268 29.69784546 57.82028198 C27.43109461 58.01266427 25.26078581 57.99150606 22.98828125 57.88671875 C22.17410233 57.87681412 21.3599234 57.86690948 20.52107239 57.85670471 C17.93145268 57.8176496 15.3461407 57.72986111 12.7578125 57.640625 C10.9981083 57.6054989 9.23833734 57.57356214 7.47851562 57.54492188 C3.17413232 57.46791876 -1.1270485 57.34721131 -5.4296875 57.203125 C-5.4296875 56.543125 -5.4296875 55.883125 -5.4296875 55.203125 C-6.0896875 55.203125 -6.7496875 55.203125 -7.4296875 55.203125 C-7.59749471 47.53114438 -7.75746163 39.8590296 -7.91186523 32.18676758 C-7.96537752 29.57442484 -8.02071363 26.96211882 -8.07788086 24.34985352 C-8.15953508 20.60441002 -8.23472177 16.85888529 -8.30859375 13.11328125 C-8.33562881 11.93725845 -8.36266388 10.76123566 -8.39051819 9.54957581 C-8.42066261 7.92800819 -8.42066261 7.92800819 -8.45141602 6.27368164 C-8.47140152 5.31659805 -8.49138702 4.35951447 -8.51197815 3.37342834 C-8.32939339 -1.44199506 -3.76170333 0.02192565 0 0 Z M32.5703125 7.203125 C33.5703125 9.203125 33.5703125 9.203125 33.5703125 9.203125 Z M6.5703125 20.203125 C6.5703125 20.533125 6.5703125 20.863125 6.5703125 21.203125 C11.5203125 21.203125 16.4703125 21.203125 21.5703125 21.203125 C21.5703125 20.873125 21.5703125 20.543125 21.5703125 20.203125 C16.6203125 20.203125 11.6703125 20.203125 6.5703125 20.203125 Z M23.5703125 21.203125 C23.5703125 22.193125 23.5703125 23.183125 23.5703125 24.203125 C24.2303125 24.533125 24.8903125 24.863125 25.5703125 25.203125 C25.2403125 23.883125 24.9103125 22.563125 24.5703125 21.203125 C24.2403125 21.203125 23.9103125 21.203125 23.5703125 21.203125 Z " fill="#FBFBFB" transform="translate(356.4296875,19.796875)"/>
<path d="M0 0 C0.99 0 1.98 0 3 0 C3.33 1.32 3.66 2.64 4 4 C5.423125 4.185625 5.423125 4.185625 6.875 4.375 C10 5 10 5 12 7 C12.70981658 8.31087095 13.36986092 9.64902 14 11 C14.4021875 11.85335938 14.804375 12.70671875 15.21875 13.5859375 C15.85296875 14.96652344 15.85296875 14.96652344 16.5 16.375 C17.13421875 17.74785156 17.13421875 17.74785156 17.78125 19.1484375 C18.1834375 20.08945312 18.585625 21.03046875 19 22 C19.40734375 22.94746094 19.8146875 23.89492188 20.234375 24.87109375 C21.18595217 28.75993717 20.63344657 31.87055777 19.75 35.6875 C19.61464844 36.35072266 19.47929687 37.01394531 19.33984375 37.69726562 C18.62898008 40.99580591 17.89420578 43.15869133 16 46 C14.98914792 47.95852591 14.04591284 49.88139183 13.25 51.9375 C11.38472962 55.01519613 8.82712454 56.78746776 6 59 C5.67 58.34 5.34 57.68 5 57 C1.63788086 55.52043682 1.63788086 55.52043682 -3 58 C-10.92 58 -18.84 58 -27 58 C-27 39.19 -27 20.38 -27 1 C-5 1 -5 1 0 2 C0 1.34 0 0.68 0 0 Z M-3.625 20.4375 C-7.275625 20.7159375 -7.275625 20.7159375 -11 21 C-11.33 29.25 -11.66 37.5 -12 46 C-3.30357036 45.33783773 -3.30357036 45.33783773 3 41 C4.52196367 39.06080018 5.740636 37.13123138 7 35 C6.34 34.34 5.68 33.68 5 33 C4.76953125 30.94140625 4.76953125 30.94140625 4.8125 28.5625 C4.81894531 27.78003906 4.82539063 26.99757813 4.83203125 26.19140625 C5 24 5 24 6 21 C2.9042768 19.4521384 -0.26504398 20.16817974 -3.625 20.4375 Z M6 24 C6 26.97 6 29.94 6 33 C6.33 33 6.66 33 7 33 C7 30.03 7 27.06 7 24 C6.67 24 6.34 24 6 24 Z " fill="#FBFBFB" transform="translate(203,19)"/>
<path d="M0 0 C3.96 0 7.92 0 12 0 C12 0.66 12 1.32 12 2 C12.66 2 13.32 2 14 2 C14 20.15 14 38.3 14 57 C12.68 57.66 11.36 58.32 10 59 C9.278125 58.05125 8.55625 57.1025 7.8125 56.125 C5.45449991 53.25788626 3.47574748 52.31514769 0 51 C-0.309375 50.34 -0.61875 49.68 -0.9375 49 C-1.288125 48.34 -1.63875 47.68 -2 47 C-2.969375 46.71125 -3.93875 46.4225 -4.9375 46.125 C-8 45 -8 45 -9.625 42.125 C-10.305625 40.578125 -10.305625 40.578125 -11 39 C-12.93716038 36.64368175 -12.93716038 36.64368175 -15 35 C-15.66 35 -16.32 35 -17 35 C-17.33 40.61 -17.66 46.22 -18 52 C-18.33 52 -18.66 52 -19 52 C-19.83607707 46.97047388 -20.08107185 42.24266081 -20 37.125 C-19.96282256 34.750291 -19.95262788 32.37452751 -20 30 C-20.33 29.67 -20.66 29.34 -21 29 C-21.02505615 29.65484375 -21.0501123 30.3096875 -21.07592773 30.984375 C-21.19292655 33.98973236 -21.31517635 36.99485485 -21.4375 40 C-21.49647461 41.54494141 -21.49647461 41.54494141 -21.55664062 43.12109375 C-21.79185439 48.80241075 -22.19481377 54.37046268 -23 60 C-27.20594226 60.72795155 -29.80104745 61.04973814 -34 60 C-34 40.53 -34 21.06 -34 1 C-28 3 -28 3 -26 7 C-22.95800528 8.29231642 -22.95800528 8.29231642 -20 9 C-20 9.66 -20 10.32 -20 11 C-19.38125 11.226875 -18.7625 11.45375 -18.125 11.6875 C-16 13 -16 13 -15.0625 15.5625 C-14.711875 16.366875 -14.36125 17.17125 -14 18 C-12.34608154 18.39171753 -10.67654729 18.72057545 -9 19 C-6.6875 20.9375 -6.6875 20.9375 -5 23 C-5 23.66 -5 24.32 -5 25 C-4.01 25.33 -3.02 25.66 -2 26 C-2.66 26.33 -3.32 26.66 -4 27 C-2.68 27.33 -1.36 27.66 0 28 C0 18.76 0 9.52 0 0 Z M12 3 C12 20.16 12 37.32 12 55 C12.33 55 12.66 55 13 55 C13 37.84 13 20.68 13 3 C12.67 3 12.34 3 12 3 Z M-2 29 C-1.34 29.66 -0.68 30.32 0 31 C0 30.34 0 29.68 0 29 C-0.66 29 -1.32 29 -2 29 Z M-18 31 C-18 31.66 -18 32.32 -18 33 C-17.34 32.67 -16.68 32.34 -16 32 C-16.66 31.67 -17.32 31.34 -18 31 Z " fill="#F8F8F8" transform="translate(39,20)"/>
<path d="M0 0 C4.37487331 -0.08738991 8.74952078 -0.140524 13.125 -0.1875 C14.3625 -0.21263672 15.6 -0.23777344 16.875 -0.26367188 C18.07382813 -0.27333984 19.27265625 -0.28300781 20.5078125 -0.29296875 C21.60754395 -0.3086792 22.70727539 -0.32438965 23.84033203 -0.34057617 C27.46826849 0.050474 29.83900125 1.2222552 33 3 C33.763125 3.309375 34.52625 3.61875 35.3125 3.9375 C37 5 37 5 37.75 7.125 C37.8325 7.74375 37.915 8.3625 38 9 C38.66 9 39.32 9 40 9 C41.65240367 12.06668803 42.73531826 15.08860714 43.6875 18.4375 C43.95949219 19.36433594 44.23148438 20.29117188 44.51171875 21.24609375 C45.42308257 26.38618567 43.85833584 29.76966296 41 34 C38.64046906 36.35953094 37.22104383 36.49141413 34 37 C34 38.32 34 39.64 34 41 C35.6396721 42.36639342 37.31110128 43.6949419 39 45 C43 50.40540541 43 50.40540541 43 53 C44.32 53 45.64 53 47 53 C46.67 54.32 46.34 55.64 46 57 C43.77110504 57.05428973 41.54182529 57.09292338 39.3125 57.125 C38.07113281 57.14820313 36.82976562 57.17140625 35.55078125 57.1953125 C32.1596535 57.00878182 29.98117436 56.57859233 27 55 C25.8125 52.9375 25.8125 52.9375 25 51 C24.34 50.67 23.68 50.34 23 50 C23 49.01 23 48.02 23 47 C22.34 47 21.68 47 21 47 C20.566875 46.030625 20.13375 45.06125 19.6875 44.0625 C18.2985139 40.72268235 18.2985139 40.72268235 15 40 C15.12375 40.7425 15.2475 41.485 15.375 42.25 C15.25125 43.1575 15.1275 44.065 15 45 C13.04109119 46.39300182 11.0360882 47.72245446 9 49 C7.24677063 51.53188648 7.24677063 51.53188648 6 54 C4 56 4 56 0.875 56.125 C-0.07375 56.08375 -1.0225 56.0425 -2 56 C-1.88261342 48.34607362 -1.75777849 40.69229511 -1.62768555 33.03857422 C-1.58428863 30.43313371 -1.54261714 27.82766389 -1.50268555 25.22216797 C-1.44509808 21.48395944 -1.3813706 17.74589918 -1.31640625 14.0078125 C-1.29969376 12.83695099 -1.28298126 11.66608948 -1.26576233 10.45974731 C-1.24581711 9.37877777 -1.22587189 8.29780823 -1.20532227 7.18408203 C-1.18977798 6.22921906 -1.1742337 5.27435608 -1.15821838 4.29055786 C-1 2 -1 2 0 0 Z M0 3 C0 19.5 0 36 0 53 C0.33 53 0.66 53 1 53 C1 36.5 1 20 1 3 C0.67 3 0.34 3 0 3 Z M13 12 C13 22.56 13 33.12 13 44 C13.33 44 13.66 44 14 44 C14 33.44 14 22.88 14 12 C13.67 12 13.34 12 13 12 Z M15 12 C15 20.91 15 29.82 15 39 C15.66 38.67 16.32 38.34 17 38 C17 35.36 17 32.72 17 30 C17.77085937 29.89042969 18.54171875 29.78085937 19.3359375 29.66796875 C20.33882812 29.50941406 21.34171875 29.35085937 22.375 29.1875 C23.37273437 29.03667969 24.37046875 28.88585937 25.3984375 28.73046875 C28.3287364 28.21227702 28.3287364 28.21227702 30 25 C30.4942563 19.54023039 30.4942563 19.54023039 28.6875 14.5625 C24.5678501 10.74800935 20.87321018 12 15 12 Z M26 50 C27 52 27 52 27 52 Z " fill="#FDFDFD" transform="translate(124,20)"/>
<path d="M0 0 C0.66 0 1.32 0 2 0 C2 16.83 2 33.66 2 51 C2.66 51.33 3.32 51.66 4 52 C4.33 52.99 4.66 53.98 5 55 C8.3 55.66 11.6 56.32 15 57 C15 56.34 15 55.68 15 55 C15.99 55 16.98 55 18 55 C18.0093457 54.20827393 18.01869141 53.41654785 18.02832031 52.60083008 C18.08209344 49.00409292 18.16572963 45.40864648 18.25 41.8125 C18.26417969 40.56662109 18.27835937 39.32074219 18.29296875 38.03710938 C18.32519531 36.83505859 18.35742188 35.63300781 18.390625 34.39453125 C18.4220459 32.73707886 18.4220459 32.73707886 18.45410156 31.04614258 C19.3955212 25.79297048 23.17029596 22.61062907 27 19.125 C27.66 18.50882813 28.32 17.89265625 29 17.2578125 C31 16 31 16 33.1875 16.1796875 C35 17 35 17 36 19 C36.22101028 24.58332217 36.15849694 30.15990142 36.08764648 35.74633789 C36.07099473 37.61117252 36.07012705 39.47622045 36.08569336 41.34106445 C36.22389712 58.81219349 36.22389712 58.81219349 31.12109375 64.77734375 C27.66468622 68 27.66468622 68 24 68 C23.01 68.495 23.01 68.495 22 69 C22.33 69.66 22.66 70.32 23 71 C13.6693185 73.6628163 5.71494807 71.66557782 -3 68 C-3.99 67.67 -4.98 67.34 -6 67 C-6.33333333 65.66666667 -6.66666667 64.33333333 -7 63 C-7.639375 62.278125 -8.27875 61.55625 -8.9375 60.8125 C-14.56115662 53.14387734 -13.22031584 42.75518208 -12.94335938 33.69702148 C-12.87486289 31.30771733 -12.83897396 28.91930777 -12.8046875 26.52929688 C-12.76499782 24.99473926 -12.72339738 23.46022962 -12.6796875 21.92578125 C-12.67218475 21.21940018 -12.66468201 20.5130191 -12.6569519 19.78523254 C-12.46119015 14.76498669 -11.02911651 11.94326975 -8 8 C-7.67 7.34 -7.34 6.68 -7 6 C-6.38125 5.71125 -5.7625 5.4225 -5.125 5.125 C-2.63196721 3.80515911 -1.64676857 2.2455935 0 0 Z M32 56 C31.34 57.65 30.68 59.3 30 61 C30.99 60.34 31.98 59.68 33 59 C32.67 58.01 32.34 57.02 32 56 Z " fill="#FCFCFC" transform="translate(309,5)"/>
<path d="M0 0 C0.495 1.98 0.495 1.98 1 4 C1.66 4 2.32 4 3 4 C2.49935858 8.33889229 -0.21726171 10.81003171 -3 14 C-3.66 14.99 -4.32 15.98 -5 17 C-8.63 16.34 -12.26 15.68 -16 15 C-16 15.66 -16 16.32 -16 17 C-14.1746875 16.9071875 -14.1746875 16.9071875 -12.3125 16.8125 C-8.38142889 16.82639071 -6.10309954 17.42886038 -3 20 C-1.1875 22.6875 -1.1875 22.6875 0 25 C0.66 24.67 1.32 24.34 2 24 C2.66 26.31 3.32 28.62 4 31 C4.66 31 5.32 31 6 31 C6.68892751 42.82658888 6.68892751 42.82658888 4.125 46.625 C2.78851934 48.11871368 1.41727928 49.58272072 0 51 C-0.9590625 52.051875 -0.9590625 52.051875 -1.9375 53.125 C-6.48563714 55.90957376 -10.79702679 55.32803334 -16 55 C-16 55.66 -16 56.32 -16 57 C-20.75 56.125 -20.75 56.125 -23 55 C-23 54.34 -23 53.68 -23 53 C-24.98 53.495 -24.98 53.495 -27 54 C-27.66 53.01 -28.32 52.02 -29 51 C-29.99 51 -30.98 51 -32 51 C-32.6875 49.3125 -32.6875 49.3125 -33 47 C-31.16996711 42.93326024 -28.73862985 40.4034049 -25 38 C-22.3125 37.5625 -22.3125 37.5625 -20 38 C-19.34 38.99 -18.68 39.98 -18 41 C-15.79274927 41.36362818 -15.79274927 41.36362818 -13.375 41.1875 C-12.14910156 41.14689453 -12.14910156 41.14689453 -10.8984375 41.10546875 C-9.95871094 41.05326172 -9.95871094 41.05326172 -9 41 C-9 39.02 -9 37.04 -9 35 C-9.763125 35.04125 -10.52625 35.0825 -11.3125 35.125 C-14 35 -14 35 -17 33 C-18.48683174 32.61213085 -19.98950019 32.28195997 -21.5 32 C-24.75259668 31.39284862 -26.14696759 30.9020216 -29 29 C-30.0625 27.0625 -30.0625 27.0625 -31 25 C-31.66 24.01 -32.32 23.02 -33 22 C-33.33392055 18.66079451 -33.15588227 15.34878116 -33 12 C-32.95875 11.071875 -32.9175 10.14375 -32.875 9.1875 C-31.50810012 5.7702503 -28.88173665 4.17600522 -26 2 C-25.34 1.34 -24.68 0.68 -24 0 C-15.74696961 -2.80013531 -8.43571587 -1.55394766 0 0 Z M-18 12 C-18 12.33 -18 12.66 -18 13 C-15.03 13 -12.06 13 -9 13 C-9 12.67 -9 12.34 -9 12 C-11.97 12 -14.94 12 -18 12 Z " fill="#FBFBFB" transform="translate(433,21)"/>
<path d="M0 0 C16.17 0 32.34 0 49 0 C49.495 1.485 49.495 1.485 50 3 C50.66 3.66 51.32 4.32 52 5 C51.05125 5.226875 50.1025 5.45375 49.125 5.6875 C45.80353159 6.66973024 45.80353159 6.66973024 44.8125 9.5625 C44.544375 10.366875 44.27625 11.17125 44 12 C43.01 12.33 42.02 12.66 41 13 C40.505 12.505 40.505 12.505 40 12 C39.01 13.98 38.02 15.96 37 18 C36.01 18 35.02 18 34 18 C33.98541748 18.91289795 33.97083496 19.8257959 33.95581055 20.76635742 C33.89459205 24.16798611 33.82041127 27.56882681 33.73754883 30.9699707 C33.70438741 32.43926422 33.67632822 33.90868244 33.65356445 35.37817383 C33.61985481 37.49614368 33.56753567 39.61297995 33.51171875 41.73046875 C33.48553467 43.00301514 33.45935059 44.27556152 33.43237305 45.58666992 C32.71722772 51.2323203 30.0689962 54.25379006 25.8125 57.8125 C25.09707031 58.41707031 24.38164062 59.02164063 23.64453125 59.64453125 C23.10183594 60.09183594 22.55914062 60.53914063 22 61 C20.32044455 58.06120691 19.7530948 55.97388452 19.77294922 52.59863281 C19.77310028 51.7380426 19.77325134 50.87745239 19.77340698 49.99078369 C19.78372955 49.07085632 19.79405212 48.15092896 19.8046875 47.203125 C19.8075174 46.25435486 19.81034729 45.30558472 19.81326294 44.32806396 C19.82444552 41.30191361 19.8495467 38.2760607 19.875 35.25 C19.88503228 33.19661886 19.8941577 31.14323308 19.90234375 29.08984375 C19.92437859 24.05978146 19.95889538 19.02994114 20 14 C19.38439209 14.01450195 18.76878418 14.02900391 18.13452148 14.04394531 C16.92131226 14.06086426 16.92131226 14.06086426 15.68359375 14.078125 C14.48174438 14.09987793 14.48174438 14.09987793 13.25561523 14.12207031 C10.12308295 13.95254264 8.37478418 13.0149684 6 11 C5.67 10.319375 5.34 9.63875 5 8.9375 C4.10584626 6.72563418 4.10584626 6.72563418 1.375 5.75 C0.59125 5.5025 -0.1925 5.255 -1 5 C-0.67 3.35 -0.34 1.7 0 0 Z M47 3 C48 5 48 5 48 5 Z M31 47 C30.67 47.66 30.34 48.32 30 49 C30.66 49 31.32 49 32 49 C31.67 48.34 31.34 47.68 31 47 Z " fill="#F8F8F8" transform="translate(441,20)"/>
<path d="M0 0 C13.9631462 -0.68859351 13.9631462 -0.68859351 17.875 1.875 C18.57625 2.57625 19.2775 3.2775 20 4 C20 4.66 20 5.32 20 6 C19.34 6 18.68 6 18 6 C18.66 6.94875 19.32 7.8975 20 8.875 C22.63665153 13.44022703 22.54861252 17.85563346 22 23 C21.67 23.99 21.34 24.98 21 26 C20.34 26 19.68 26 19 26 C17.88214887 28.11785113 17.88214887 28.11785113 17 31 C18.175625 30.0409375 18.175625 30.0409375 19.375 29.0625 C23.55350178 26.21991345 28.07641598 26.19460806 33 26 C32.67 28.64 32.34 31.28 32 34 C30.02 34.495 30.02 34.495 28 35 C28 35.66 28 36.32 28 37 C26.03852126 38.38938077 24.03833424 39.7260411 22 41 C22.33 41.66 22.66 42.32 23 43 C21.9275 43.144375 20.855 43.28875 19.75 43.4375 C16.29102734 43.87405261 16.29102734 43.87405261 14.15234375 44.52734375 C11.34193839 45.14451081 8.68735676 45.13200331 5.8125 45.125 C4.21341797 45.12886719 4.21341797 45.12886719 2.58203125 45.1328125 C0 45 0 45 -1 44 C-1.07205511 42.31391034 -1.08386068 40.62499341 -1.0625 38.9375 C-1.05347656 38.01839844 -1.04445313 37.09929687 -1.03515625 36.15234375 C-1.01775391 35.08693359 -1.01775391 35.08693359 -1 34 C-0.11248047 34.01740234 -0.11248047 34.01740234 0.79296875 34.03515625 C5.00231785 34.08322386 8.8922333 34.06006883 13 33 C13 32.01 13 31.02 13 30 C11.06257659 29.97296619 9.12504521 29.95358875 7.1875 29.9375 C6.10855469 29.92589844 5.02960938 29.91429688 3.91796875 29.90234375 C0.93487831 29.86375234 0.93487831 29.86375234 -2 31 C-5.73578362 27.86676213 -6.39221332 25.76099563 -7 21 C-7.66 20.01 -8.32 19.02 -9 18 C-9.125 15.3125 -9.125 15.3125 -9 13 C-8.34 13 -7.68 13 -7 13 C-7 10.36 -7 7.72 -7 5 C-5.5459375 4.5978125 -5.5459375 4.5978125 -4.0625 4.1875 C-3.051875 3.795625 -2.04125 3.40375 -1 3 C-0.67 2.01 -0.34 1.02 0 0 Z M14 3 C14.33 3.66 14.66 4.32 15 5 C15.66 4.67 16.32 4.34 17 4 C16.01 3.67 15.02 3.34 14 3 Z " fill="#3676C4" transform="translate(81,34)"/>
<path d="M0 0 C2.64 0 5.28 0 8 0 C8.125 6.75 8.125 6.75 7 9 C7.60760482 11.3494053 8.27129528 13.68529088 9 16 C10.32 15.34 11.64 14.68 13 14 C13 13.34 13 12.68 13 12 C13.66 12 14.32 12 15 12 C15.309375 11.195625 15.61875 10.39125 15.9375 9.5625 C17 7 17 7 18 6 C28.33962208 5.51241727 38.69145494 6.24142113 49 7 C49.93619813 10.15506142 50.1057123 12.96586502 50.0625 16.25 C50.05347656 17.14203125 50.04445313 18.0340625 50.03515625 18.953125 C50.02355469 19.62859375 50.01195312 20.3040625 50 21 C49.01 21.33 48.02 21.66 47 22 C47.495 22.928125 47.99 23.85625 48.5 24.8125 C50 28 50 28 50 31 C47.75 31.6875 47.75 31.6875 45 32 C42.8125 30.5625 42.8125 30.5625 41 29 C40.34 29 39.68 29 39 29 C38.505 30.485 38.505 30.485 38 32 C34.7 32 31.4 32 28 32 C26.89912807 24.98194143 26.90266908 18.09434233 27 11 C25.35 11 23.7 11 22 11 C21.855625 11.721875 21.71125 12.44375 21.5625 13.1875 C21.04166667 15.79166667 20.52083333 18.39583333 20 21 C19.7834375 22.2375 19.7834375 22.2375 19.5625 23.5 C18.96698059 26.14675293 18.06716573 28.50994662 17 31 C10.59638943 32.35460993 10.59638943 32.35460993 7.6875 30.625 C7.130625 30.08875 6.57375 29.5525 6 29 C5.34 28.67 4.68 28.34 4 28 C2.18012092 22.56415202 1.61902228 16.67437086 1 11 C0.34 11 -0.32 11 -1 11 C-0.67 7.37 -0.34 3.74 0 0 Z M23 9 C27 10 27 10 27 10 Z M37 13 C37.33 13.66 37.66 14.32 38 15 C39.32 14.34 40.64 13.68 42 13 C40.35 13 38.7 13 37 13 Z M11 19 C12 21 12 21 12 21 Z M18 21 C19 23 19 23 19 23 Z M4 22 C4.66 23.32 5.32 24.64 6 26 C5.67 24.68 5.34 23.36 5 22 C4.67 22 4.34 22 4 22 Z M17 24 C18 26 18 26 18 26 Z M39 24 C39.33 25.32 39.66 26.64 40 28 C40.33 27.34 40.66 26.68 41 26 C40.34 25.34 39.68 24.68 39 24 Z " fill="#FDFDFD" transform="translate(224,88)"/>
<path d="M0 0 C0.99 0.495 0.99 0.495 2 1 C2.09765625 7.15234375 2.09765625 7.15234375 2 9 C1.67 9.33 1.34 9.66 1 10 C0.63239269 12.32817964 0.29758419 14.6618385 0 17 C-2.64 17 -5.28 17 -8 17 C-8 16.01 -8 15.02 -8 14 C-8.74502274 14.01918991 -9.49004547 14.03837982 -10.25764465 14.05815125 C-17.27602558 14.23621654 -24.29455862 14.39963927 -31.31364918 14.54658794 C-34.92232162 14.6226551 -38.53068005 14.70439522 -42.13891602 14.79907227 C-45.62055935 14.89021933 -49.10223926 14.96650078 -52.58444786 15.03244972 C-54.56059553 15.07377053 -56.5364011 15.13051316 -58.51216125 15.18742371 C-59.71317978 15.20767105 -60.9141983 15.2279184 -62.15161133 15.2487793 C-63.74045891 15.28541939 -63.74045891 15.28541939 -65.36140442 15.32279968 C-68 15 -68 15 -69.86552429 13.48445129 C-70.23990128 12.99458237 -70.61427826 12.50471344 -71 12 C-71.33 12.66 -71.66 13.32 -72 14 C-72.2475 13.236875 -72.495 12.47375 -72.75 11.6875 C-74.12176758 8.73819971 -75.3918717 7.82568981 -78 6 C-78 5.34 -78 4.68 -78 4 C-77.34 4 -76.68 4 -76 4 C-76 3.01 -76 2.02 -76 1 C-75.0626149 1.00222061 -74.1252298 1.00444122 -73.15943909 1.00672913 C-64.34478215 1.02696143 -55.5301299 1.04197256 -46.71545506 1.05181217 C-42.18325906 1.05704078 -37.65108173 1.06413801 -33.11889648 1.07543945 C-28.7487717 1.08626914 -24.37866492 1.09227701 -20.00852776 1.09487724 C-18.33749037 1.09673135 -16.66645403 1.10035168 -14.99542427 1.10573006 C-12.66302449 1.11294159 -10.33070007 1.1139909 -7.99829102 1.11352539 C-7.3005809 1.11712067 -6.60287079 1.12071594 -5.88401794 1.12442017 C-2.66340619 1.39062466 -2.66340619 1.39062466 0 0 Z " fill="#F4F4F4" transform="translate(368,95)"/>
<path d="M0 0 C0.70706085 0.00359528 1.4141217 0.00719055 2.14260864 0.01089478 C3.25473473 0.01067574 3.25473473 0.01067574 4.389328 0.01045227 C6.85130696 0.01115152 9.31321119 0.01894442 11.775177 0.02676392 C13.47768614 0.02862806 15.18019582 0.03005198 16.88270569 0.03105164 C21.37245148 0.03487714 25.86216513 0.0447077 30.35189819 0.05575562 C34.92983566 0.06596903 39.50777831 0.07054911 44.08572388 0.07559204 C53.07467032 0.08632994 62.06359287 0.10340675 71.05252075 0.12442017 C72.05252075 3.12442017 72.05252075 3.12442017 72.05252075 6.12442017 C71.06252075 6.12442017 70.07252075 6.12442017 69.05252075 6.12442017 C68.94939575 6.72254517 68.84627075 7.32067017 68.74002075 7.93692017 C67.91796648 10.5525474 67.23378529 11.46900257 65.05252075 13.12442017 C62.45188904 13.44721985 62.45188904 13.44721985 59.29592896 13.37319946 C58.11493118 13.35295212 56.93393341 13.33270477 55.71714783 13.31184387 C54.4420787 13.27448624 53.16700958 13.2371286 51.853302 13.19863892 C50.54798019 13.17219803 49.24265839 13.14575714 47.89778137 13.11851501 C44.43023365 13.04810355 40.96338705 12.95938009 37.49636841 12.86685181 C33.95738423 12.77564087 30.41804354 12.70173289 26.87869263 12.62637329 C19.93618779 12.47599997 12.99427016 12.30628027 6.05252075 12.12442017 C6.05252075 11.46442017 6.05252075 10.80442017 6.05252075 10.12442017 C3.74252075 10.12442017 1.43252075 10.12442017 -0.94747925 10.12442017 C-1.02997925 9.56754517 -1.11247925 9.01067017 -1.19747925 8.43692017 C-2.17357938 5.4272781 -3.89936739 3.50287264 -5.94747925 1.12442017 C-4.27411929 -0.54893979 -2.23360016 0.00479121 0 0 Z M8.05252075 10.12442017 C8.05252075 10.45442017 8.05252075 10.78442017 8.05252075 11.12442017 C26.20252075 11.12442017 44.35252075 11.12442017 63.05252075 11.12442017 C63.05252075 10.79442017 63.05252075 10.46442017 63.05252075 10.12442017 C44.90252075 10.12442017 26.75252075 10.12442017 8.05252075 10.12442017 Z " fill="#D5D6E5" transform="translate(136.94747924804688,98.87557983398438)"/>
<path d="M0 0 C6.6 0.33 13.2 0.66 20 1 C20.85221996 4.40887983 21.10783755 6.80434631 21.0625 10.25 C21.05347656 11.14203125 21.04445313 12.0340625 21.03515625 12.953125 C21.02355469 13.62859375 21.01195312 14.3040625 21 15 C20.01 15.33 19.02 15.66 18 16 C18.495 16.928125 18.99 17.85625 19.5 18.8125 C21 22 21 22 21 25 C18.75 25.6875 18.75 25.6875 16 26 C13.8125 24.5625 13.8125 24.5625 12 23 C11.34 23 10.68 23 10 23 C9.67 23.99 9.34 24.98 9 26 C6.36 26 3.72 26 1 26 C0.67 17.42 0.34 8.84 0 0 Z M8 7 C8.33 7.66 8.66 8.32 9 9 C10.32 8.34 11.64 7.68 13 7 C11.35 7 9.7 7 8 7 Z M10 18 C10.33 19.32 10.66 20.64 11 22 C11.33 21.34 11.66 20.68 12 20 C11.34 19.34 10.68 18.68 10 18 Z " fill="#FCFCFC" transform="translate(253,94)"/>
<path d="M0 0 C0.70706085 0.00359528 1.4141217 0.00719055 2.14260864 0.01089478 C3.25473473 0.01067574 3.25473473 0.01067574 4.389328 0.01045227 C6.85130696 0.01115152 9.31321119 0.01894442 11.775177 0.02676392 C13.47768614 0.02862806 15.18019582 0.03005198 16.88270569 0.03105164 C21.37245148 0.03487714 25.86216513 0.0447077 30.35189819 0.05575562 C34.92983566 0.06596903 39.50777831 0.07054911 44.08572388 0.07559204 C53.07467032 0.08632994 62.06359287 0.10340675 71.05252075 0.12442017 C72.05252075 3.12442017 72.05252075 3.12442017 72.05252075 6.12442017 C70.40252075 5.79442017 68.75252075 5.46442017 67.05252075 5.12442017 C67.05252075 5.78442017 67.05252075 6.44442017 67.05252075 7.12442017 C66.39252075 7.12442017 65.73252075 7.12442017 65.05252075 7.12442017 C65.05252075 6.46442017 65.05252075 5.80442017 65.05252075 5.12442017 C63.80677277 5.15986687 63.80677277 5.15986687 62.53585815 5.19602966 C54.70858665 5.41424187 46.8811721 5.60810025 39.05262375 5.77463245 C35.02785271 5.86110801 31.00376432 5.9569822 26.97976685 6.07437134 C23.09619638 6.18731747 19.21277829 6.27552788 15.32822418 6.34662437 C13.84645489 6.37808833 12.36484703 6.41845699 10.88356781 6.46787453 C8.80777489 6.53560291 6.733662 6.5716013 4.65701294 6.60025024 C3.47564758 6.62911819 2.29428223 6.65798615 1.07711792 6.68772888 C-1.94747925 6.12442017 -1.94747925 6.12442017 -4.36026001 3.59468079 C-4.88404236 2.77949478 -5.40782471 1.96430878 -5.94747925 1.12442017 C-4.27411929 -0.54893979 -2.23360016 0.00479121 0 0 Z " fill="#FAFAFA" transform="translate(136.94747924804688,98.87557983398438)"/>
<path d="M0 0 C1.18802719 0.00222061 2.37605438 0.00444122 3.6000824 0.00672913 C4.58053528 0.00651009 4.58053528 0.00651009 5.58079529 0.00628662 C7.75058766 0.00698569 9.92029517 0.01477774 12.09007263 0.02259827 C13.59079949 0.02446247 15.09152696 0.02588636 16.59225464 0.02688599 C20.54934865 0.03071099 24.50640616 0.04054112 28.46348572 0.05158997 C32.49851488 0.06180446 36.53354991 0.06638369 40.56858826 0.07142639 C48.49113108 0.08216341 56.41364419 0.09923962 64.33616638 0.12025452 C64.83116638 1.60525452 64.83116638 1.60525452 65.33616638 3.12025452 C65.00616638 3.78025452 64.67616638 4.44025452 64.33616638 5.12025452 C65.65616638 4.46025452 66.97616638 3.80025452 68.33616638 3.12025452 C68.33616638 4.77025452 68.33616638 6.42025452 68.33616638 8.12025452 C65.69616638 8.12025452 63.05616638 8.12025452 60.33616638 8.12025452 C60.33616638 7.13025452 60.33616638 6.14025452 60.33616638 5.12025452 C59.59114365 5.13944443 58.84612091 5.15863434 58.07852173 5.17840576 C51.0601408 5.35647106 44.04160777 5.51989378 37.0225172 5.66684246 C33.41384476 5.74290962 29.80548633 5.82464974 26.19725037 5.91932678 C22.71560703 6.01047385 19.23392713 6.08675529 15.75171852 6.15270424 C13.77557086 6.19402505 11.79976528 6.25076768 9.82400513 6.30767822 C8.6229866 6.32792557 7.42196808 6.34817291 6.18455505 6.36903381 C4.59570747 6.4056739 4.59570747 6.4056739 2.97476196 6.4430542 C0.33616638 6.12025452 0.33616638 6.12025452 -1.52935791 4.60470581 C-1.90373489 4.11483688 -2.27811188 3.62496796 -2.66383362 3.12025452 C-2.99383362 3.78025452 -3.32383362 4.44025452 -3.66383362 5.12025452 C-3.66383362 0.16539792 -3.66383362 0.16539792 0 0 Z " fill="#D7D7E1" transform="translate(299.66383361816406,103.87974548339844)"/>
<path d="M0 0 C1.68117668 0.0001133 1.68117668 0.0001133 3.39631653 0.00022888 C4.59544174 0.00539017 5.79456696 0.01055145 7.0300293 0.01586914 C8.26593307 0.01728409 9.50183685 0.01869904 10.77519226 0.02015686 C14.0483315 0.02479921 17.32142092 0.03377228 20.59454346 0.04486084 C23.93957053 0.05512135 27.28459978 0.05957908 30.62963867 0.06469727 C37.18369455 0.07571632 43.73771722 0.09244703 50.29174805 0.11352539 C50.78674805 1.59852539 50.78674805 1.59852539 51.29174805 3.11352539 C53.27174805 2.12352539 55.25174805 1.13352539 57.29174805 0.11352539 C57.29174805 1.76352539 57.29174805 3.41352539 57.29174805 5.11352539 C54.65174805 5.11352539 52.01174805 5.11352539 49.29174805 5.11352539 C49.29174805 4.12352539 49.29174805 3.13352539 49.29174805 2.11352539 C29.49174805 2.44352539 9.69174805 2.77352539 -10.70825195 3.11352539 C-10.70825195 2.45352539 -10.70825195 1.79352539 -10.70825195 1.11352539 C-7.07348895 0.27759641 -3.72634415 -0.00841161 0 0 Z " fill="#D4D7E9" transform="translate(310.708251953125,106.886474609375)"/>
<path d="M0 0 C0.495 0.99 0.495 0.99 1 2 C2.32 1.67 3.64 1.34 5 1 C4.43420518 4.28160995 3.67224486 5.97196484 1 8 C-1.60063171 8.32279968 -1.60063171 8.32279968 -4.7565918 8.2487793 C-5.93758957 8.22853195 -7.11858734 8.20828461 -8.33537292 8.18742371 C-9.61044205 8.15006607 -10.88551117 8.11270844 -12.19921875 8.07421875 C-13.50454056 8.04777786 -14.80986237 8.02133698 -16.15473938 7.99409485 C-19.6222871 7.92368339 -23.0891337 7.83495992 -26.55615234 7.74243164 C-30.09513652 7.65122071 -33.63447721 7.57731273 -37.17382812 7.50195312 C-44.11633296 7.35157981 -51.0582506 7.1818601 -58 7 C-58 6.34 -58 5.68 -58 5 C-56.95430344 5.00333092 -56.95430344 5.00333092 -55.88748169 5.00672913 C-49.32470762 5.02674798 -42.76194204 5.04198229 -36.19914436 5.05181217 C-32.82496974 5.05703565 -29.45082029 5.06412361 -26.07666016 5.07543945 C-22.19953741 5.08752436 -18.3224506 5.09323263 -14.4453125 5.09765625 C-13.23070343 5.10281754 -12.01609436 5.10797882 -10.76467896 5.11329651 C-9.64366791 5.11337204 -8.52265686 5.11344757 -7.36767578 5.11352539 C-6.37728302 5.115746 -5.38689026 5.11796661 -4.3664856 5.12025452 C-1.98103227 5.15770154 -1.98103227 5.15770154 0 4 C0 3.34 0 2.68 0 2 C-19.47 2 -38.94 2 -59 2 C-59 1.67 -59 1.34 -59 1 C-39.53 0.67 -20.06 0.34 0 0 Z " fill="#C0C1CE" transform="translate(201,104)"/>
<path d="M0 0 C4.29 0 8.58 0 13 0 C13.66 1.65 14.32 3.3 15 5 C13.906875 4.979375 12.81375 4.95875 11.6875 4.9375 C8.05615809 4.81455548 8.05615809 4.81455548 5 6 C5 5.34 5 4.68 5 4 C-1.30347455 6.99715719 -1.30347455 6.99715719 -7 11 C-7 9.02 -7 7.04 -7 5 C-5.5459375 4.5978125 -5.5459375 4.5978125 -4.0625 4.1875 C-3.051875 3.795625 -2.04125 3.40375 -1 3 C-0.67 2.01 -0.34 1.02 0 0 Z " fill="#71A8E4" transform="translate(81,34)"/>
<path d="M0 0 C8.42105263 0 8.42105263 0 12 2 C12.33 2.99 12.66 3.98 13 5 C9.04 5 5.08 5 1 5 C1 12.59 1 20.18 1 28 C0.67 28 0.34 28 0 28 C0 18.76 0 9.52 0 0 Z " fill="#000000" transform="translate(191,35)"/>
<path d="M0 0 C0.99 0.495 0.99 0.495 2 1 C2 1.66 2 2.32 2 3 C-19.78 3 -41.56 3 -64 3 C-64 2.67 -64 2.34 -64 2 C-63.21295181 1.98969254 -62.42590363 1.97938507 -61.61500549 1.96876526 C-54.21301893 1.87095812 -46.81111932 1.76846814 -39.40927219 1.66066074 C-35.60352595 1.60539706 -31.79777208 1.55197171 -27.99194336 1.50268555 C-24.32200665 1.45509259 -20.65216609 1.40275191 -16.98234367 1.34705925 C-15.57927773 1.32661263 -14.1761854 1.30790343 -12.7730732 1.29092598 C-10.81423074 1.26693313 -8.85547299 1.23629801 -6.89672852 1.20532227 C-5.77976089 1.18977798 -4.66279327 1.1742337 -3.51197815 1.15821838 C-1.06138999 1.28180962 -1.06138999 1.28180962 0 0 Z " fill="#F9F9F9" transform="translate(368,95)"/>
<path d="M0 0 C22.11 0 44.22 0 67 0 C67 0.33 67 0.66 67 1 C44.89 1 22.78 1 0 1 C0 0.67 0 0.34 0 0 Z " fill="#F8F8F8" transform="translate(142,97)"/>
<path d="M0 0 C0.66 0 1.32 0 2 0 C1.835 0.598125 1.67 1.19625 1.5 1.8125 C0.8885876 4.11344336 0.8885876 4.11344336 1 7 C-1 9.1875 -1 9.1875 -3 11 C-4.98 10.34 -6.96 9.68 -9 9 C-8.2575 8.443125 -7.515 7.88625 -6.75 7.3125 C-3.92455792 5.09173001 -3.92455792 5.09173001 -1.8125 2.25 C-1.214375 1.5075 -0.61625 0.765 0 0 Z " fill="#D4D4D9" transform="translate(68,56)"/>
<path d="M0 0 C0.66 0 1.32 0 2 0 C2 8.58 2 17.16 2 26 C1.67 26 1.34 26 1 26 C-0.10087193 18.98194143 -0.09733092 12.09434233 0 5 C-0.66 4.67 -1.32 4.34 -2 4 C-1.34 2.68 -0.68 1.36 0 0 Z " fill="#989898" transform="translate(251,94)"/>
<path d="M0 0 C0 1.65 0 3.3 0 5 C-2.64 5 -5.28 5 -8 5 C-8 4.01 -8 3.02 -8 2 C-12.95 2 -17.9 2 -23 2 C-23 1.67 -23 1.34 -23 1 C-17.39 1 -11.78 1 -6 1 C-6 1.66 -6 2.32 -6 3 C-5.195625 2.505 -4.39125 2.01 -3.5625 1.5 C-1 0 -1 0 0 0 Z " fill="#E7EAFB" transform="translate(368,107)"/>
<path d="M0 0 C2.64 0 5.28 0 8 0 C8 1.98 8 3.96 8 6 C7.67 5.34 7.34 4.68 7 4 C4.69 4 2.38 4 0 4 C0 2.68 0 1.36 0 0 Z " fill="#000000" transform="translate(224,88)"/>
<path d="M0 0 C1.875 0.25 1.875 0.25 4 1 C5.25 3.0625 5.25 3.0625 6 5 C4.906875 4.979375 3.81375 4.95875 2.6875 4.9375 C-0.94384191 4.81455548 -0.94384191 4.81455548 -4 6 C-4 5.34 -4 4.68 -4 4 C-4.99 3.67 -5.98 3.34 -7 3 C-4.69 3 -2.38 3 0 3 C0 2.01 0 1.02 0 0 Z " fill="#5197E2" transform="translate(90,34)"/>
<path d="M0 0 C3.96 0 7.92 0 12 0 C10 2 10 2 6.875 2.125 C5.92625 2.08375 4.9775 2.0425 4 2 C4 2.99 4 3.98 4 5 C3.34 5 2.68 5 2 5 C1.34 3.35 0.68 1.7 0 0 Z " fill="#000000" transform="translate(381,39)"/>
<path d="M0 0 C4.62 0 9.24 0 14 0 C14 0.66 14 1.32 14 2 C12.04196493 2.05389087 10.08351091 2.09274217 8.125 2.125 C7.03445313 2.14820312 5.94390625 2.17140625 4.8203125 2.1953125 C2 2 2 2 0 0 Z " fill="#FEFEFE" transform="translate(284,82)"/>
<path d="M0 0 C0.66 0.33 1.32 0.66 2 1 C2 1.66 2 2.32 2 3 C-4.93 3 -11.86 3 -19 3 C-19 2.67 -19 2.34 -19 2 C-17.71222656 1.93941406 -16.42445313 1.87882812 -15.09765625 1.81640625 C-13.41925841 1.73201753 -11.74087364 1.6473687 -10.0625 1.5625 C-8.78729492 1.50352539 -8.78729492 1.50352539 -7.48632812 1.44335938 C-6.67744141 1.40146484 -5.86855469 1.35957031 -5.03515625 1.31640625 C-3.91185913 1.26141968 -3.91185913 1.26141968 -2.76586914 1.20532227 C-0.97538674 1.18228937 -0.97538674 1.18228937 0 0 Z " fill="#D3D3D3" transform="translate(368,95)"/>
<path d="M0 0 C0 3.16785869 -0.55555175 4.28103859 -2 7 C-2.33 7.99 -2.66 8.98 -3 10 C-3.66 10 -4.32 10 -5 10 C-5 8.35 -5 6.7 -5 5 C-4.34 5 -3.68 5 -3 5 C-2.5359375 4.0409375 -2.5359375 4.0409375 -2.0625 3.0625 C-1 1 -1 1 0 0 Z " fill="#4E8DD1" transform="translate(77,42)"/>
<path d="M0 0 C0.66 0.99 1.32 1.98 2 3 C1.67 3.99 1.34 4.98 1 6 C-0.65 6 -2.3 6 -4 6 C-2.84826645 3.53199953 -1.95216435 1.95216435 0 0 Z " fill="#DFDEE4" transform="translate(116,49)"/>
<path d="M0 0 C0 1.65 0 3.3 0 5 C-2.31 5 -4.62 5 -7 5 C-7 4.34 -7 3.68 -7 3 C-1.125 0 -1.125 0 0 0 Z " fill="#000002" transform="translate(368,107)"/>
<path d="M0 0 C3.465 1.98 3.465 1.98 7 4 C7 4.66 7 5.32 7 6 C6.01 6.33 5.02 6.66 4 7 C3.01 6.34 2.02 5.68 1 5 C1.66 4.67 2.32 4.34 3 4 C1.68 3.67 0.36 3.34 -1 3 C-0.67 2.01 -0.34 1.02 0 0 Z " fill="#4C7DB8" transform="translate(94,34)"/>
<path d="M0 0 C6.27 0 12.54 0 19 0 C19 0.33 19 0.66 19 1 C12.73 1 6.46 1 0 1 C0 0.67 0 0.34 0 0 Z " fill="#FEFEFE" transform="translate(182,78)"/>
<path d="M0 0 C3.3 0 6.6 0 10 0 C9.67 0.66 9.34 1.32 9 2 C5.625 2.125 5.625 2.125 2 2 C1.34 1.34 0.68 0.68 0 0 Z " fill="#FDFDFD" transform="translate(160,78)"/>
<path d="M0 0 C0.99 0.33 1.98 0.66 3 1 C1.68 2.32 0.36 3.64 -1 5 C-1.99 4.67 -2.98 4.34 -4 4 C-2.68 2.68 -1.36 1.36 0 0 Z " fill="#F2F1F5" transform="translate(66,62)"/>
<path d="M0 0 C5.57142857 5.14285714 5.57142857 5.14285714 6 9 C5.01 8.67 4.02 8.34 3 8 C1.76132839 5.38502661 0.91496017 2.74488051 0 0 Z " fill="#4084D5" transform="translate(97,40)"/>
<path d="M0 0 C1.98 0 3.96 0 6 0 C6 0.66 6 1.32 6 2 C3.03 1.505 3.03 1.505 0 1 C0 0.67 0 0.34 0 0 Z " fill="#F3F3F3" transform="translate(454,35)"/>
<path d="M0 0 C2.64 0 5.28 0 8 0 C8 0.33 8 0.66 8 1 C5.36 1 2.72 1 0 1 C0 0.67 0 0.34 0 0 Z " fill="#FEFEFE" transform="translate(418,77)"/>
<path d="M0 0 C1.32 0 2.64 0 4 0 C4 0.66 4 1.32 4 2 C2.68 1.67 1.36 1.34 0 1 C0 0.67 0 0.34 0 0 Z " fill="#D8D8D8" transform="translate(166,69)"/>
<path d="M0 0 C1.32 1.32 2.64 2.64 4 4 C2.68 3.34 1.36 2.68 0 2 C0 1.34 0 0.68 0 0 Z " fill="#FEFEFE" transform="translate(242,67)"/>
<path d="M0 0 C0.66 0.33 1.32 0.66 2 1 C0.35 1.33 -1.3 1.66 -3 2 C-2.01 1.34 -1.02 0.68 0 0 Z " fill="#D2D2D2" transform="translate(204,76)"/>
<path d="M0 0 C1.485 0.99 1.485 0.99 3 2 C2.67 2.66 2.34 3.32 2 4 C1.34 2.68 0.68 1.36 0 0 Z " fill="#D1D1D1" transform="translate(159,60)"/>
<path d="M0 0 C0.99 0.33 1.98 0.66 3 1 C2.01 1.33 1.02 1.66 0 2 C0 1.34 0 0.68 0 0 Z " fill="#CBCBCB" transform="translate(299,67)"/>
<path d="M0 0 C0.99 0.33 1.98 0.66 3 1 C2.01 1 1.02 1 0 1 C0 0.67 0 0.34 0 0 Z " fill="#BDBDBD" transform="translate(291,103)"/>
<path d="M0 0 C0.66 0 1.32 0 2 0 C2 0.66 2 1.32 2 2 C1.34 2 0.68 2 0 2 C0 1.34 0 0.68 0 0 Z " fill="#404040" transform="translate(171,78)"/>
<path d="M0 0 C0.66 0 1.32 0 2 0 C2 0.66 2 1.32 2 2 C1.34 2 0.68 2 0 2 C0 1.34 0 0.68 0 0 Z " fill="#F8F8F8" transform="translate(171,75)"/>
<path d="M0 0 C1 4 1 4 1 4 Z " fill="#FFFFFF" transform="translate(56,41)"/>
<path d="M0 0 C0.99 0.495 0.99 0.495 2 1 C1.34 1.66 0.68 2.32 0 3 C0 2.01 0 1.02 0 0 Z " fill="#7F7F7F" transform="translate(479,35)"/>
<path d="M0 0 C0.66 0.66 1.32 1.32 2 2 C1.34 2 0.68 2 0 2 C0 1.34 0 0.68 0 0 Z " fill="#FEFEFE" transform="translate(403,72)"/>
<path d="M0 0 C0.99 0.495 0.99 0.495 2 1 C1.01 1.495 1.01 1.495 0 2 C0 1.34 0 0.68 0 0 Z " fill="#FDFDFD" transform="translate(203,59)"/>
<path d="" fill="#FEFEFE" transform="translate(0,0)"/>
<path d="M0 0 C0.33 0.66 0.66 1.32 1 2 C0.34 1.67 -0.32 1.34 -1 1 C-0.67 0.67 -0.34 0.34 0 0 Z " fill="#FFFFFF" transform="translate(68,23)"/>
<path d="M0 0 C3 1 3 1 3 1 Z " fill="#A9A9A9" transform="translate(207,22)"/>
<path d="M0 0 C2 1 2 1 2 1 Z " fill="#FDFDFD" transform="translate(223,102)"/>
<path d="M0 0 C2 1 2 1 2 1 Z " fill="#000000" transform="translate(287,99)"/>
<path d="" fill="#010101" transform="translate(0,0)"/>
<path d="" fill="#000000" transform="translate(0,0)"/>
<path d="M0 0 C2 1 2 1 2 1 Z " fill="#E8E8E8" transform="translate(47,79)"/>
<path d="M0 0 C2 1 2 1 2 1 Z " fill="#3F72C4" transform="translate(99,77)"/>
<path d="M0 0 C2 1 2 1 2 1 Z " fill="#FDFDFD" transform="translate(426,76)"/>
<path d="M0 0 C2 1 2 1 2 1 Z " fill="#FDFDFD" transform="translate(239,66)"/>
<path d="M0 0 C2 1 2 1 2 1 Z " fill="#FEFEFE" transform="translate(404,60)"/>
<path d="" fill="#FDFDFD" transform="translate(0,0)"/>
<path d="" fill="#FFFFFF" transform="translate(0,0)"/>
<path d="M0 0 C2 1 2 1 2 1 Z " fill="#FFFFFF" transform="translate(271,38)"/>
<path d="" fill="#E6E6E6" transform="translate(0,0)"/>
<path d="M0 0 C2 1 2 1 2 1 Z " fill="#FEFEFE" transform="translate(443,27)"/>
<path d="M0 0 C2 1 2 1 2 1 Z " fill="#FDFDFD" transform="translate(107,25)"/>
<path d="" fill="#FFFFFF" transform="translate(0,0)"/>
<path d="" fill="#FEFEFE" transform="translate(0,0)"/>
<path d="M0 0 C2 1 2 1 2 1 Z " fill="#FDFDFD" transform="translate(247,22)"/>
<path d="M0 0 C2 1 2 1 2 1 Z " fill="#FEFEFE" transform="translate(299,13)"/>
<path d="M0 0 C2 1 2 1 2 1 Z " fill="#FEFEFE" transform="translate(303,9)"/>
<path d="" fill="#FEFEFE" transform="translate(0,0)"/>
<path d="" fill="#FCFCFC" transform="translate(0,0)"/>
<path d="" fill="#FDFDFD" transform="translate(0,0)"/>
<path d="" fill="#F2F2F2" transform="translate(0,0)"/>
<path d="" fill="#000000" transform="translate(0,0)"/>
<path d="" fill="#FEFEFE" transform="translate(0,0)"/>
<path d="" fill="#FFFFFF" transform="translate(0,0)"/>
<path d="" fill="#FFFFFF" transform="translate(0,0)"/>
<path d="" fill="#FEFEFE" transform="translate(0,0)"/>
<path d="" fill="#FEFEFE" transform="translate(0,0)"/>
<path d="" fill="#FEFEFE" transform="translate(0,0)"/>
<path d="" fill="#FEFEFE" transform="translate(0,0)"/>
<path d="" fill="#FFFFFF" transform="translate(0,0)"/>
<path d="" fill="#6494D2" transform="translate(0,0)"/>
<path d="" fill="#FDFDFD" transform="translate(0,0)"/>
<path d="" fill="#FEFEFE" transform="translate(0,0)"/>
<path d="" fill="#FDFDFD" transform="translate(0,0)"/>
<path d="" fill="#FDFDFD" transform="translate(0,0)"/>
<path d="" fill="#FDFDFD" transform="translate(0,0)"/>
<path d="" fill="#FDFDFD" transform="translate(0,0)"/>
<path d="" fill="#FFFFFF" transform="translate(0,0)"/>
<path d="" fill="#FFFFFF" transform="translate(0,0)"/>
<path d="" fill="#FEFEFE" transform="translate(0,0)"/>
<path d="" fill="#FFFFFF" transform="translate(0,0)"/>
<path d="" fill="#FEFEFE" transform="translate(0,0)"/>
<path d="" fill="#FFFFFF" transform="translate(0,0)"/>
<path d="" fill="#FFFFFF" transform="translate(0,0)"/>
<path d="" fill="#FEFEFE" transform="translate(0,0)"/>
<path d="" fill="#FFFFFF" transform="translate(0,0)"/>
<path d="" fill="#FFFFFF" transform="translate(0,0)"/>
</svg>
